<?xml version="1.0" encoding="utf-8"?>
<svg width="86px" height="117px" viewBox="0 0 86 117" version="1.1" xmlns:xlink="http://www.w3.org/1999/xlink" xmlns="http://www.w3.org/2000/svg">
  <path d="M82.679 4.011L3.188 4.011C1.42732 4.011 6.28557e-07 5.43832 6.28557e-07 7.199L6.28557e-07 53.612C-0.000530172 54.4578 0.335145 55.2691 0.933097 55.8672C1.53105 56.4653 2.34224 56.8013 3.188 56.801L82.68 56.801C83.5259 56.8013 84.3372 56.4654 84.9353 55.8673C85.5334 55.2691 85.8693 54.4579 85.869 53.612L85.869 7.199C85.8687 6.35322 85.5325 5.5422 84.9343 4.94433C84.336 4.34646 83.5248 4.01073 82.679 4.011L82.679 4.011ZM8.25 37.236L8.024 37.236C6.26299 37.2354 4.83555 35.808 4.835 34.047L4.835 26.764C4.835 25.9183 5.17102 25.1073 5.7691 24.5094C6.36718 23.9115 7.17832 23.5757 8.024 23.576L8.25 23.576L8.25 37.236L8.25 37.236ZM69.481 52.408L13.199 52.408L13.199 8.402L69.481 8.402L69.481 52.408L69.481 52.408ZM78.258 34.552C75.969 34.552 74.112 32.697 74.112 30.405C74.112 28.113 75.968 26.258 78.258 26.258C80.5483 26.258 82.405 28.1147 82.405 30.405C82.405 32.6953 80.5483 34.552 78.258 34.552L78.258 34.552ZM31.355 0L54.512 0L54.512 2.758L31.355 2.758L31.355 0ZM46.466 64.861L46.466 61.888L54.512 61.888L54.512 59.13L31.356 59.13L31.356 61.888L39.401 61.888L39.401 97.134C37.1927 98.1005 35.766 100.282 35.766 102.693L35.766 117L50.101 117L50.101 102.693C50.1016 100.283 48.674 98.1007 46.465 97.136L46.465 69.146L51.261 69.146L56.312 70.359L56.312 63.648L51.261 64.861L46.466 64.861L46.466 64.861Z" id="Shape" fill="#363636" stroke="none" />
</svg>