<?xml version="1.0" encoding="utf-8"?>
<svg width="97px" height="55px" viewBox="0 0 97 55" version="1.1" xmlns:xlink="http://www.w3.org/1999/xlink" xmlns="http://www.w3.org/2000/svg">
  <path d="M16.806 32.464L16.806 19.828C16.806 18.519 17.851 17.458 19.141 17.458L27.467 19.039L27.467 10.845C27.467 8.49 25.759 7.414 23.265 6.58L0.078 0C1.694 1.391 1.967 2.04 1.967 4.396L1.967 49.605C1.967 51.961 1.517 53.671 0 54.815L23.265 47.75C25.666 46.917 27.467 43.534 27.467 41.178L27.467 33.265L19.141 34.832C17.851 34.834 16.806 33.772 16.806 32.464L16.806 32.464Z" transform="translate(67.32541 0.17492676)" id="Shape" fill="#363636" stroke="none" />
  <path d="M95.1294 20.979L87.5314 19.535C86.5234 19.535 85.7074 20.364 85.7074 21.386L85.7074 31.254C85.7074 32.277 86.5234 33.106 87.5314 33.106L95.1294 31.675C96.2834 31.256 96.9534 30.846 96.9534 29.823L96.9534 22.83C96.9534 21.808 96.1874 21.323 95.1294 20.979ZM67.1704 4.48297C67.1704 -0.597032 62.9384 0.0239677 62.9384 0.0239677C62.9384 0.0239677 5.83241 4.73797 2.83841 5.14497C-0.155585 5.55197 0.00141458 9.53197 0.00141458 9.53197L0.000414581 45.812C0.000414581 49.555 2.59941 49.565 2.59941 49.565L19.0764 50.968L27.2124 39.3C27.2124 39.3 28.3214 37.472 29.7174 37.472C31.1144 37.472 32.1494 39.333 32.1494 39.333L41.2104 52.854C41.2104 52.854 60.1054 54.763 63.7314 54.763C67.3574 54.762 67.1704 49.739 67.1704 49.739L67.1704 4.48297ZM12.9824 37.192C9.28441 37.192 6.28641 32.591 6.28641 26.917C6.28641 21.243 9.28441 16.642 12.9824 16.642C16.6804 16.642 19.6784 21.243 19.6784 26.917C19.6784 32.591 16.6804 37.192 12.9824 37.192ZM49.1404 38.618C44.4784 38.618 40.6994 33.379 40.6994 26.917C40.6994 20.454 44.4794 15.215 49.1404 15.215C53.8024 15.215 57.5824 20.454 57.5824 26.917C57.5824 33.379 53.8024 38.618 49.1404 38.618Z" id="Shape" fill="#363636" stroke="none" />
</svg>